<svg width="1440" height="398" viewBox="0 0 1440 398" fill="none" xmlns="http://www.w3.org/2000/svg">
<path d="M2907.18 22.0573C2759.37 22.1687 2758.78 -0.110982 2610.97 0.000416358C2463.16 0.111815 2463.75 22.3915 2315.94 22.5029C2168.13 22.6143 2167.54 0.33461 2019.73 0.446008C1871.92 0.557407 1872.51 22.8371 1724.71 22.9485C1576.9 23.0599 1576.31 0.780206 1428.5 0.891604C1280.69 1.003 1281.28 23.2827 1133.47 23.3941C985.661 23.5055 985.07 1.2258 837.261 1.3372C689.453 1.44859 690.044 23.7283 542.235 23.8397C394.426 23.9511 393.835 1.67139 246.026 1.78279C98.2176 1.89419 98.8088 24.1739 -49 24.2853L-37.1753 475.116L2919 472.442L2907.18 22.0573Z" fill="#09D1D1"/>
</svg>
