<svg viewBox="0 0 65 65" fill="none" xmlns="http://www.w3.org/2000/svg">
  <path d="M0 32.5C0 14.5507 14.5507 0 32.5 0C50.4493 0 65 14.5507 65 32.5C65 50.4493 50.4493 65 32.5 65C14.5507 65 0 50.4493 0 32.5Z" fill="white" />
  <path fill-rule="evenodd" clip-rule="evenodd" d="M15.8182 14H50.1818C52.2906 14 54 15.6914 54 17.7778V44.2222C54 46.3087 52.2906 48 50.1818 48H15.8182C13.7095 48 12 46.3087 12 44.2222V17.7778C12 15.6914 13.7095 14 15.8182 14ZM15.8182 26.5009V44.2222H50.1818V26.5017L33 35.0016L15.8182 26.5009ZM15.8182 22.2771L33 30.778L50.1818 22.278V17.7778H15.8182V22.2771Z" fill="#09D1D1" />
</svg>
