<svg width="191" height="191" viewBox="0 0 191 191" fill="none" xmlns="http://www.w3.org/2000/svg">
<g clip-path="url(#clip0)">
<path d="M179.063 71.6248V171.104C179.091 175.019 177.925 178.851 175.72 182.086C175.012 183.207 174.185 184.247 173.253 185.19L94.3065 106.243L91.5209 103.458L145.876 49.1025L149.298 51.2513L177.153 68.2025C178.338 68.937 179.06 70.2308 179.063 71.6248Z" fill="#CFD8DC"/>
<path d="M145.876 49.103L88.7357 106.244L9.78908 185.19C8.85721 184.248 8.03017 183.207 7.32212 182.086C5.11742 178.851 3.95128 175.02 3.97963 171.104V43.7707C3.97963 32.7826 12.8872 23.875 23.8753 23.875H103.458C104.182 23.8996 104.89 24.0902 105.528 24.432L142.454 46.9539L145.876 49.103Z" fill="#4CAF50"/>
<path d="M173.253 185.19C172.311 186.122 171.27 186.95 170.149 187.657C166.914 189.862 163.082 191.028 159.167 191H23.8754C19.9599 191.028 16.1287 189.862 12.8929 187.657C11.7719 186.949 10.7315 186.122 9.78918 185.19L88.7358 106.244L91.5214 103.458L94.3069 106.244L173.253 185.19Z" fill="#2196F3"/>
<path d="M175.72 182.086C174.312 184.343 172.406 186.249 170.149 187.657L88.7357 106.243C87.2129 104.69 87.2383 102.196 88.792 100.673C90.3238 99.1716 92.7747 99.1716 94.3064 100.673L175.72 182.086Z" fill="#FAFAFA"/>
<path d="M149.299 51.2518L94.3064 106.244L12.8928 187.657C10.6359 186.249 8.73039 184.344 7.32214 182.087L142.454 46.9543L149.299 51.2518Z" fill="#FFC107"/>
<path d="M39.792 71.6248C31.0015 71.6248 23.8752 64.4985 23.8752 55.708C23.8752 46.9176 31.0015 39.7913 39.792 39.7913C48.5825 39.7913 55.7088 46.9176 55.7088 55.708C55.7088 64.4985 48.5825 71.6248 39.792 71.6248ZM39.792 47.7498C35.3968 47.7498 31.8338 51.3128 31.8338 55.708C31.8338 60.1032 35.3968 63.6662 39.792 63.6662C44.1872 63.6662 47.7502 60.1032 47.7502 55.708C47.7502 51.3128 44.1872 47.7498 39.792 47.7498Z" fill="#FAFAFA"/>
<path d="M55.7088 47.7498H39.792C37.5944 47.7498 35.8127 45.9682 35.8127 43.7705C35.8127 41.5729 37.5944 39.7913 39.792 39.7913H55.7088C57.9064 39.7913 59.6881 41.5729 59.6881 43.7705C59.6881 45.9682 57.9064 47.7498 55.7088 47.7498Z" fill="#FAFAFA"/>
<path d="M39.792 103.458C29.9653 104.607 21.0677 97.5719 19.9188 87.7451C19.9109 87.6773 19.9031 87.6094 19.896 87.5415C19.896 80.1003 26.963 75.0787 40.922 72.564C40.1763 71.0319 39.7898 69.3499 39.792 67.6458C39.792 65.4482 41.5737 63.6665 43.7713 63.6665C45.9689 63.6665 47.7506 65.4482 47.7506 67.6458C47.7506 69.4524 49.398 71.1632 52.1037 73.7817C56.4885 77.0678 59.2509 82.0793 59.6881 87.5415C59.6877 101.532 50.1377 103.458 39.792 103.458ZM46.7952 79.7261C32.8523 81.4851 27.8546 85.0025 27.8546 87.5411C27.8546 89.1329 29.9794 95.4993 39.792 95.4993C51.1964 95.4993 51.7295 92.7697 51.7295 87.5411C51.7295 84.7559 49.8751 82.7105 46.7952 79.7261Z" fill="#FAFAFA"/>
<path d="M143.25 0C119.089 0.0305898 99.5101 19.6095 99.4795 43.7706C99.4925 46.1749 99.7298 48.5728 100.188 50.9331C101.147 57.1029 103.448 62.987 106.928 68.1708C108.775 71.354 110.908 74.6648 113.16 78.1983C126.099 96.7741 135.02 117.846 139.351 140.066C139.788 142.22 141.889 143.611 144.042 143.174C145.608 142.856 146.832 141.632 147.15 140.066C151.477 117.844 160.395 96.7693 173.333 78.1901C175.601 74.6644 177.718 71.3779 179.405 68.4252C182.951 63.1933 185.303 57.2462 186.297 51.0044C186.762 48.6206 187.004 46.1988 187.021 43.7703C186.99 19.6095 167.412 0.0305898 143.25 0Z" fill="#F44336"/>
<path d="M143.25 63.6663C154.238 63.6663 163.146 54.7587 163.146 43.7707C163.146 32.7826 154.238 23.875 143.25 23.875C132.262 23.875 123.354 32.7826 123.354 43.7707C123.354 54.7587 132.262 63.6663 143.25 63.6663Z" fill="#C62828"/>
</g>
<defs>
<clipPath id="clip0">
<rect width="191" height="191" fill="white"/>
</clipPath>
</defs>
</svg>
