<svg width="80" height="71" viewBox="0 0 80 71" fill="none" xmlns="http://www.w3.org/2000/svg">
<g clip-path="url(#clip0)">
<path d="M42.411 54.5873L77.6505 24.1986C78.4662 23.4957 78.9225 22.5496 78.9352 21.5349C78.9478 20.5201 78.5152 19.5629 77.7173 18.84L75.1793 16.5381C73.5255 15.0402 70.8077 15.0063 69.1196 16.4626L39.5276 41.9807L10.5486 15.7039C9.75066 14.981 8.68002 14.574 7.53316 14.5597C6.38503 14.5454 5.30458 14.9256 4.48824 15.6284L1.89433 17.8663C1.07862 18.5698 0.622293 19.5153 0.609647 20.53C0.597001 21.5448 1.02962 22.502 1.82755 23.2249L36.3303 54.5115C37.1307 55.2362 38.2065 55.6422 39.3553 55.6542C40.5085 55.6709 41.5934 55.2918 42.411 54.5873Z" fill="#CFD8DC"/>
</g>
<defs>
<clipPath id="clip0">
<rect width="69.2689" height="78.332" fill="white" transform="translate(79.189 1.16455) rotate(90.714)"/>
</clipPath>
</defs>
</svg>
