<svg viewBox="0 0 65 65" fill="none" xmlns="http://www.w3.org/2000/svg">
  <path d="M38.7207 32.5C38.7207 35.9357 35.9357 38.7207 32.5 38.7207C29.0643 38.7207 26.2793 35.9357 26.2793 32.5C26.2793 29.0643 29.0643 26.2793 32.5 26.2793C35.9357 26.2793 38.7207 29.0643 38.7207 32.5Z" fill="white" />
  <path d="M47.048 21.4938C46.749 20.6834 46.2719 19.95 45.652 19.3479C45.05 18.7281 44.3171 18.251 43.5062 17.952C42.8487 17.6966 41.8608 17.3926 40.0413 17.3098C38.073 17.22 37.4829 17.2007 32.5 17.2007C27.5166 17.2007 26.9265 17.2195 24.9587 17.3093C23.1392 17.3926 22.1508 17.6966 21.4938 17.952C20.6829 18.251 19.9495 18.7281 19.348 19.3479C18.7281 19.95 18.251 20.6829 17.9515 21.4938C17.6961 22.1513 17.3921 23.1397 17.3093 24.9592C17.2195 26.9269 17.2002 27.5171 17.2002 32.5005C17.2002 37.4834 17.2195 38.0735 17.3093 40.0418C17.3921 41.8613 17.6961 42.8492 17.9515 43.5067C18.251 44.3175 18.7276 45.0505 19.3475 45.6525C19.9495 46.2724 20.6824 46.7495 21.4933 47.0485C22.1508 47.3044 23.1392 47.6084 24.9587 47.6912C26.9265 47.781 27.5161 47.7998 32.4995 47.7998C37.4834 47.7998 38.0735 47.781 40.0408 47.6912C41.8603 47.6084 42.8487 47.3044 43.5062 47.0485C45.1338 46.4207 46.4202 45.1343 47.048 43.5067C47.3034 42.8492 47.6074 41.8613 47.6907 40.0418C47.7805 38.0735 47.7993 37.4834 47.7993 32.5005C47.7993 27.5171 47.7805 26.9269 47.6907 24.9592C47.6079 23.1397 47.3039 22.1513 47.048 21.4938ZM32.5 42.083C27.2071 42.083 22.9165 37.7928 22.9165 32.5C22.9165 27.2071 27.2071 22.917 32.5 22.917C37.7924 22.917 42.083 27.2071 42.083 32.5C42.083 37.7928 37.7924 42.083 32.5 42.083ZM42.4619 24.7777C41.2251 24.7777 40.2223 23.7749 40.2223 22.5381C40.2223 21.3013 41.2251 20.2986 42.4619 20.2986C43.6987 20.2986 44.7014 21.3013 44.7014 22.5381C44.7009 23.7749 43.6987 24.7777 42.4619 24.7777Z" fill="white" />
  <path d="M32.5 0C14.5535 0 0 14.5535 0 32.5C0 50.4465 14.5535 65 32.5 65C50.4465 65 65 50.4465 65 32.5C65 14.5535 50.4465 0 32.5 0ZM51.0495 40.1941C50.9593 42.1807 50.6434 43.537 50.1822 44.7242C49.2127 47.231 47.231 49.2127 44.7242 50.1822C43.5375 50.6434 42.1807 50.9588 40.1945 51.0495C38.2045 51.1403 37.5687 51.1621 32.5005 51.1621C27.4318 51.1621 26.7965 51.1403 24.8059 51.0495C22.8198 50.9588 21.463 50.6434 20.2763 50.1822C19.0306 49.7136 17.9029 48.9791 16.9706 48.0294C16.0214 47.0976 15.2869 45.9694 14.8183 44.7242C14.3571 43.5375 14.0412 42.1807 13.951 40.1945C13.8592 38.204 13.8379 37.5682 13.8379 32.5C13.8379 27.4318 13.8592 26.796 13.9505 24.8059C14.0407 22.8193 14.3561 21.463 14.8173 20.2758C15.2859 19.0306 16.0209 17.9024 16.9706 16.9706C17.9024 16.0209 19.0306 15.2864 20.2758 14.8178C21.463 14.3566 22.8193 14.0412 24.8059 13.9505C26.796 13.8597 27.4318 13.8379 32.5 13.8379C37.5682 13.8379 38.204 13.8597 40.1941 13.951C42.1807 14.0412 43.537 14.3566 44.7242 14.8173C45.9694 15.2859 47.0976 16.0209 48.0299 16.9706C48.9791 17.9029 49.7141 19.0306 50.1822 20.2758C50.6439 21.463 50.9593 22.8193 51.05 24.8059C51.1408 26.796 51.1621 27.4318 51.1621 32.5C51.1621 37.5682 51.1408 38.204 51.0495 40.1941Z" fill="white" />
</svg>
