<svg viewBox="0 0 65 65" fill="none" xmlns="http://www.w3.org/2000/svg">
  <g clip-path="url(#clip0)">
    <path d="M46.8048 56.0241C34.6139 57.3253 22.3861 57.3253 10.1952 56.0241C5.33418 55.5053 1.49467 51.6658 0.975861 46.8043C-0.325287 34.6135 -0.325287 22.3861 0.975861 10.1952C1.49467 5.33418 5.33418 1.49467 10.1952 0.975861C22.3861 -0.325287 34.6135 -0.325287 46.8043 0.975861C51.6658 1.49467 55.5053 5.33418 56.0241 10.1952C57.3253 22.3861 57.3253 34.6135 56.0241 46.8043C55.5053 51.6658 51.6663 55.5053 46.8048 56.0241Z" fill="white" />
    <path d="M52.9239 12.2569C52.4638 7.94336 49.057 4.53611 44.743 4.07558C33.9251 2.92142 23.0749 2.92142 12.257 4.07558C7.94342 4.53611 4.53617 7.94336 4.07564 12.2569C2.92148 23.0749 2.92148 33.925 4.07564 44.7425C4.53617 49.0565 7.94342 52.4637 12.257 52.9238C23.0749 54.0784 33.9251 54.0784 44.7426 52.9238C49.0566 52.4637 52.4638 49.0565 52.9239 44.7425C54.0785 33.925 54.0785 23.0749 52.9239 12.2569Z" fill="white" />
    <path d="M0.854095 45.6228C0.893234 46.0168 0.933678 46.4108 0.975861 46.8048C1.49467 51.6658 5.33418 55.5054 10.1957 56.0242C22.3865 57.3253 34.6139 57.3253 46.8048 56.0242C51.6663 55.5054 55.5053 51.6658 56.0241 46.8048C56.0663 46.4108 56.1068 46.0168 56.1463 45.6228H0.854095Z" fill="white" />
    <path d="M55.4097 49.3818L18.6261 12.5978C17.8047 11.5259 16.5122 10.834 15.0576 10.834C12.5762 10.834 10.5644 12.8453 10.5644 15.3267C10.5644 16.7818 11.2567 18.0742 12.3287 18.8953L48.9844 55.5514C51.9472 54.5655 54.3085 52.2889 55.4097 49.3818Z" fill="white" />
    <path d="M18.8314 22.7671H11.2833V46.166L21.9934 56.8761C30.2656 57.1892 38.5434 56.9061 46.8043 56.0242C48.2486 55.8702 49.6015 55.421 50.8052 54.7409L18.8314 22.7671Z" fill="white" />
    <path d="M44.4656 24.727C43.0848 23.2132 41.097 22.2634 38.8874 22.2634C35.3923 22.2634 33.1366 23.4911 31.7942 24.6309L30.3152 22.767H23.3602V46.1659L34.1025 56.9082C38.3391 56.7704 42.5739 56.4755 46.8048 56.0241C51.6662 55.5053 55.5053 51.6658 56.0241 46.8048C56.3712 43.5545 56.6247 40.3016 56.7865 37.0479L44.4656 24.727Z" fill="white" />
    <path d="M11.2837 22.7671H18.8314V46.166H11.2837V22.7671Z" fill="#09D1D1" />
    <path d="M38.8874 22.2634C33.3562 22.2634 30.9266 25.3376 30.3152 26.2734V22.767H23.3602V46.1659H30.9083V34.4125C30.9083 31.0162 32.4717 28.3743 35.4371 28.3743C38.4021 28.3743 38.8874 31.6628 38.8874 35.7067V46.1659H46.4356V29.8116C46.4356 25.6428 43.0561 22.2634 38.8874 22.2634Z" fill="#09D1D1" />
    <path d="M19.5503 15.3271C19.5503 17.8085 17.539 19.8198 15.0576 19.8198C12.5762 19.8198 10.5644 17.8085 10.5644 15.3271C10.5644 12.8457 12.5762 10.834 15.0576 10.834C17.539 10.834 19.5503 12.8457 19.5503 15.3271Z" fill="#09D1D1" />
  </g>
  <defs>
    <clipPath id="clip0">
      <rect width="57" height="57" fill="white" />
    </clipPath>
  </defs>
</svg>
