<svg width="201" height="201" viewBox="0 0 201 201" fill="none" xmlns="http://www.w3.org/2000/svg">
<g clip-path="url(#clip0)">
<path d="M196.143 159.963C192.167 164.737 186.276 167.498 180.063 167.5H20.9377C14.7248 167.498 8.83375 164.737 4.85773 159.963L81.6565 95.9778L89.6128 101.422C96.1669 105.944 104.834 105.944 111.388 101.422L119.344 95.9778L196.143 159.963Z" fill="#1E88E5"/>
<path d="M197.315 42.6293L119.344 95.9778L111.388 101.422C104.833 105.944 96.1665 105.944 89.6124 101.422L81.6561 95.9778L3.68549 42.5453C7.6089 36.8878 14.0531 33.5093 20.9381 33.5003H180.063C186.979 33.4638 193.455 36.8902 197.315 42.6293Z" fill="#64B5F6"/>
<path d="M81.6565 95.9778L4.85773 159.963C1.71436 156.206 -0.0055165 151.462 0.000372166 146.563V54.438C-0.0251454 50.1891 1.26212 46.0357 3.6855 42.5457L81.6565 95.9778Z" fill="#2196F3"/>
<path d="M201 54.4379V146.563C201.005 151.461 199.286 156.206 196.143 159.963L119.344 95.9777L197.315 42.6292C199.726 46.094 201.012 50.2165 201 54.4379Z" fill="#2196F3"/>
</g>
<defs>
<clipPath id="clip0">
<rect width="201" height="201" fill="white"/>
</clipPath>
</defs>
</svg>
