<svg width="27" height="45" viewBox="0 0 27 45" fill="none" xmlns="http://www.w3.org/2000/svg">
<path d="M26.0007 20.7441L5.97517 0.718897C5.512 0.255364 4.89371 0 4.23445 0C3.57519 0 2.9569 0.255364 2.49373 0.718897L1.01899 2.19327C0.0593621 3.154 0.0593621 4.71545 1.01899 5.67471L17.8349 22.4907L1.00033 39.3253C0.537163 39.7888 0.281433 40.4067 0.281433 41.0656C0.281433 41.7253 0.537163 42.3432 1.00033 42.8071L2.47507 44.2811C2.93861 44.7446 3.55653 45 4.21579 45C4.87505 45 5.49334 44.7446 5.95651 44.2811L26.0007 24.2376C26.465 23.7726 26.72 23.1518 26.7185 22.4918C26.72 21.8292 26.465 21.2087 26.0007 20.7441Z" fill="#FFEC06"/>
</svg>
