<svg viewBox="0 0 65 65" fill="none" xmlns="http://www.w3.org/2000/svg">
  <path d="M0 32.5C0 14.5507 14.5507 0 32.5 0C50.4493 0 65 14.5507 65 32.5C65 50.4493 50.4493 65 32.5 65C14.5507 65 0 50.4493 0 32.5Z" fill="white" />
  <path d="M41.4975 58.9448C39.9481 58.9448 38.4118 58.6658 36.9095 58.1099C30.2911 55.6611 24.1479 51.6728 19.1437 46.576C14.1395 41.4793 10.2237 35.2222 7.81956 28.4813C7.04699 26.315 6.819 24.0788 7.14214 21.8346C7.44485 19.7324 8.24433 17.6917 9.45422 15.9329C10.6695 14.1664 12.2896 12.6971 14.1394 11.6839C16.112 10.6035 18.2651 10.0557 20.539 10.0557C21.2463 10.0557 21.8575 10.559 22.0057 11.2632L24.3601 22.4537C24.4666 22.9604 24.3137 23.4877 23.954 23.8541L19.9311 27.9515C23.7261 35.6365 29.8842 41.9086 37.4295 45.7739L41.4524 41.6764C41.8121 41.3101 42.3298 41.1545 42.8273 41.2629L53.8144 43.6609C54.5059 43.8118 55 44.4344 55 45.1547C55 47.4707 54.4621 49.6638 53.4012 51.6729C52.4065 53.557 50.9639 55.2071 49.2295 56.4448C47.5028 57.6771 45.4991 58.4914 43.4351 58.7997C42.7883 58.8964 42.1417 58.9447 41.4975 58.9448V58.9448ZM19.3406 13.1779C16.3411 13.5152 13.6789 15.1164 11.911 17.6863C9.92305 20.5761 9.45947 24.1305 10.6392 27.4382C15.2613 40.3976 25.2098 50.5304 37.9337 55.238C41.1811 56.4396 44.671 55.9675 47.5082 53.9426C50.0314 52.142 51.6035 49.4305 51.9347 46.3755L42.9967 44.4248L38.7954 48.704C38.3483 49.1593 37.669 49.2803 37.097 49.0065C28.1732 44.7365 20.9498 37.3793 16.7575 28.2904C16.4887 27.7076 16.6074 27.0158 17.0545 26.5605L21.2558 22.2814L19.3406 13.1779Z" fill="#09D1D1" />
  <path d="M53.5 36.0269C52.6716 36.0269 52 35.3429 52 34.4992C52 22.7058 42.5798 13.1111 31.0007 13.1111C30.1724 13.1111 29.5008 12.4271 29.5008 11.5834C29.5008 10.7397 30.1724 10.0557 31.0007 10.0557C37.4112 10.0557 43.4379 12.5982 47.9708 17.2149C52.5036 21.8317 54.9999 27.97 54.9999 34.4992C54.9999 35.3429 54.3284 36.0269 53.5 36.0269Z" fill="#09D1D1" />
  <path d="M47.5002 36.0269C46.6718 36.0269 46.0002 35.3429 46.0002 34.4992C46.0002 26.0753 39.2715 19.2219 31.0007 19.2219C30.1724 19.2219 29.5008 18.5379 29.5008 17.6942C29.5008 16.8505 30.1724 16.1665 31.0007 16.1665C40.9256 16.1665 49.0001 24.3905 49.0001 34.4992C49.0001 35.3429 48.3286 36.0269 47.5002 36.0269Z" fill="#09D1D1" />
  <path d="M41.5004 36.0268C40.672 36.0268 40.0004 35.3428 40.0004 34.4991C40.0004 29.4447 35.9632 25.3328 31.0007 25.3328C30.1724 25.3328 29.5008 24.6488 29.5008 23.8051C29.5008 22.9614 30.1724 22.2773 31.0007 22.2773C37.6174 22.2773 43.0003 27.76 43.0003 34.4991C43.0003 35.3428 42.3288 36.0268 41.5004 36.0268Z" fill="#09D1D1" />
</svg>
