<svg width="28" height="46" viewBox="0 0 28 46" fill="none" xmlns="http://www.w3.org/2000/svg">
<path d="M1.19262 24.5346L21.3775 44.3992C21.8443 44.859 22.4646 45.1095 23.1239 45.1042C23.7831 45.0989 24.3993 44.8386 24.8588 44.3714L26.3217 42.8853C27.2736 41.917 27.2612 40.3556 26.2939 39.404L9.34419 22.7229L26.0438 5.75434C26.5033 5.28712 26.7541 4.66717 26.7488 4.0083C26.7435 3.34869 26.4829 2.73283 26.016 2.27264L24.5296 0.810457C24.0623 0.350642 23.4424 0.100221 22.7832 0.105485C22.1239 0.11075 21.5077 0.371043 21.0482 0.838258L1.16472 21.0412C0.704181 21.5099 0.454149 22.1327 0.460885 22.7927C0.464711 23.4552 0.724655 24.0737 1.19262 24.5346Z" fill="white"/>
</svg>
