<svg width="109" height="109" viewBox="0 0 109 109" fill="none" xmlns="http://www.w3.org/2000/svg">
<g clip-path="url(#clip0)">
<path d="M78.3383 109C74.8198 109 71.3311 108.378 67.9197 107.139C52.8906 101.679 38.9405 92.7869 27.5768 81.4235C16.2132 70.0601 7.32113 56.1097 1.86177 41.0807C0.107414 36.2508 -0.410315 31.2651 0.323489 26.2615C1.01088 21.5747 2.82634 17.0248 5.57379 13.1035C8.33338 9.16499 12.0124 5.88916 16.213 3.63027C20.6925 1.22152 25.5817 0 30.7454 0C32.3514 0 33.7393 1.1221 34.0759 2.69232L39.4222 27.6419C39.6643 28.7716 39.3171 29.9472 38.5002 30.7642L29.3648 39.8994C37.9827 57.0334 51.9665 71.0172 69.1005 79.6351L78.2357 70.4997C79.0525 69.6828 80.2283 69.3361 81.358 69.5777L106.308 74.924C107.878 75.2606 109 76.6486 109 78.2545C109 83.4182 107.778 88.3077 105.369 92.7871C103.111 96.9877 99.8347 100.667 95.8962 103.426C91.9751 106.174 87.4252 107.989 82.7382 108.677C81.2695 108.892 79.801 109 78.3383 109ZM28.0239 6.96124C21.2127 7.71314 15.1673 11.2832 11.1528 17.0129C6.63842 23.4558 5.58572 31.3803 8.26462 38.7549C18.7605 67.6485 41.3518 90.2398 70.2454 100.736C77.6198 103.415 85.5446 102.362 91.9874 97.8475C97.7172 93.833 101.287 87.7876 102.039 80.9764L81.7427 76.6273L72.2022 86.1678C71.187 87.183 69.6444 87.4527 68.3454 86.8422C48.0812 77.3221 31.6782 60.9191 22.1581 40.6549C21.5478 39.3557 21.8173 37.8131 22.8326 36.7981L32.3731 27.2576L28.0239 6.96124Z" fill="white"/>
<path d="M105.594 57.9039C103.713 57.9039 102.188 56.3788 102.188 54.4978C102.188 28.2039 80.7959 6.81222 54.502 6.81222C52.621 6.81222 51.0959 5.28713 51.0959 3.40611C51.0959 1.52509 52.621 0 54.502 0C69.0591 0 82.7446 5.66862 93.0379 15.9619C103.331 26.2551 109 39.9407 109 54.4978C109 56.3788 107.475 57.9039 105.594 57.9039Z" fill="white"/>
<path d="M91.9692 57.904C90.0882 57.904 88.5631 56.3789 88.5631 54.4978C88.5631 35.7166 73.2833 20.4367 54.502 20.4367C52.621 20.4367 51.0959 18.9116 51.0959 17.0306C51.0959 15.1496 52.621 13.6245 54.502 13.6245C77.0396 13.6245 95.3753 31.9602 95.3753 54.4978C95.3753 56.3789 93.8504 57.904 91.9692 57.904Z" fill="white"/>
<path d="M78.3448 57.904C76.4637 57.904 74.9387 56.379 74.9387 54.4979C74.9387 43.229 65.7709 34.0612 54.502 34.0612C52.621 34.0612 51.0959 32.5362 51.0959 30.6551C51.0959 28.7741 52.621 27.249 54.502 27.249C69.5272 27.249 81.7509 39.4727 81.7509 54.4979C81.7509 56.379 80.226 57.904 78.3448 57.904Z" fill="white"/>
</g>
<defs>
<clipPath id="clip0">
<rect width="109" height="109" fill="white"/>
</clipPath>
</defs>
</svg>
