<svg width="474" height="150" viewBox="0 0 474 150" fill="none" xmlns="http://www.w3.org/2000/svg">
<g filter="url(#filter0_d)">
<path d="M47.6966 132.613C46.7393 132.613 43.0294 132.613 36.6868 132.493C30.3442 132.374 23.7622 131.297 16.9409 129.262C8.92286 126.869 4.854 121.723 4.854 113.466C4.854 109.516 6.29008 106.046 9.16221 102.934C12.2737 99.7033 17.8983 94.677 25.7966 87.8557C58.1081 59.6131 74.1442 42.9787 74.1442 38.0721C74.1442 36.3967 72.8278 35.3197 70.0753 34.6016C67.3229 34.0033 63.254 33.4049 57.6294 32.9262C53.9196 32.5672 49.4917 32.0885 44.3458 31.4901C40.995 31.1311 38.0032 30.0541 35.1311 28.3787C31.6606 26.4639 29.9852 23.7115 29.9852 20.1213C29.9852 17.0098 31.5409 14.6164 34.6524 12.7016C39.6786 9.59014 45.9016 7.79506 53.4409 7.31637C57.9884 7.07703 62.2967 6.95735 66.3655 6.95735C78.5721 6.95735 88.3852 7.55571 95.6852 8.75243C108.969 11.0262 115.551 16.2918 115.551 24.4295C115.551 32.4475 111.123 41.3033 102.147 50.877C90.2999 63.682 77.854 75.8885 64.8097 87.377C57.2704 94.0787 53.5606 98.2672 53.5606 100.062C53.5606 101.139 55.4753 101.738 59.4245 101.738C60.9802 101.738 62.7753 101.618 64.8097 101.498C66.8442 101.379 68.9983 101.259 71.1524 101.259C75.5803 101.259 80.8458 101.618 87.0688 102.336C93.2917 103.054 99.036 105.807 104.421 110.833C106.695 112.987 107.772 115.38 107.772 118.013C107.772 120.407 106.575 122.202 104.182 123.518C98.6769 126.629 90.1803 129.023 78.8114 130.579C68.8786 132.015 58.3475 132.613 47.6966 132.613Z" fill="white"/>
<path d="M144.272 131.297H143.315C135.656 131.297 129.313 129.621 124.167 126.151C119.021 122.68 115.072 118.013 112.32 112.149C109.328 105.687 107.892 98.5065 107.892 90.7278C107.892 80.5557 109.687 71.9393 113.277 64.8787C116.867 57.818 121.534 52.4328 127.279 48.9623C133.023 45.3721 139.006 43.577 144.99 43.577C151.213 43.6967 156.479 45.4918 160.906 49.082C165.933 53.1508 168.446 59.1344 168.446 67.0328C168.446 72.059 167.01 76.4868 164.018 80.3163C161.026 84.0262 156.838 87.018 151.572 89.1721C146.306 91.3262 140.682 92.8819 134.698 93.6C131.108 94.0787 129.313 96.3524 129.313 100.302C129.313 102.575 130.39 104.969 132.424 107.482C134.698 110.354 139.126 111.67 145.588 111.67C153.128 111.67 160.547 109.516 168.087 105.208C172.036 102.934 175.387 101.738 178.139 101.738C179.934 101.738 181.37 102.336 182.447 103.533C183.405 104.729 183.884 106.046 183.884 107.602C183.884 110.474 182.806 112.867 180.533 115.141C169.882 125.672 157.795 131.057 144.272 131.297ZM137.211 75.8885C141.759 75.8885 145.349 73.3754 147.862 68.3491C149.657 64.759 150.495 62.0065 150.495 59.9721C150.495 58.177 149.657 57.3393 147.862 57.3393C147.743 57.3393 147.264 57.3393 146.187 57.3393C145.11 57.3393 143.315 58.177 140.682 59.6131C138.049 61.1688 135.775 62.9639 133.861 65.118C132.305 66.7934 131.587 68.5885 131.587 70.2639C131.587 74.0934 133.502 75.8885 137.211 75.8885Z" fill="white"/>
<path d="M204.467 141.588C204.228 141.588 203.27 141.469 201.475 141.349C199.68 141.229 197.646 139.674 195.372 136.802C192.859 133.69 191.543 130.22 191.543 126.27L191.782 90.1295C191.902 64.5196 193.338 49.2016 196.21 44.1754C198.244 40.3459 201.236 38.4311 204.946 38.4311C212.126 38.4311 216.075 44.4147 216.793 56.3819C216.913 57.818 217.033 59.2541 217.152 60.6901C228.641 47.8852 239.052 41.5426 248.387 41.5426C249.584 41.5426 253.054 42.0213 258.798 43.0983C264.543 44.1754 269.21 54.7065 272.8 74.5721C274.595 84.2655 275.552 94.5574 275.552 105.208C275.552 114.064 274.356 121.723 271.843 128.305C269.329 134.887 264.902 138.118 258.559 138.118C254.729 138.118 251.498 136.802 248.746 134.288C246.352 132.134 245.036 129.382 244.557 125.792C244.079 122.8 243.839 119.928 243.839 117.295C243.839 114.184 244.198 109.875 244.916 104.37C245.515 100.302 245.874 95.5147 245.874 90.0098C245.874 74.0934 243.6 66.0754 238.933 66.0754C237.138 66.0754 234.864 67.8704 232.231 71.3409C227.324 77.9229 223.495 90.8475 220.743 110.234C219.905 116.457 218.828 121.962 217.631 126.869C216.434 131.775 214.639 135.485 212.366 137.879C210.211 140.392 207.459 141.588 204.467 141.588Z" fill="white"/>
<path d="M301.641 141.947C296.256 141.947 292.665 139.434 291.11 134.408C289.434 128.903 288.477 118.133 288.477 102.097C288.477 81.0344 289.913 67.9902 292.905 62.8442C294.939 59.3738 297.572 57.6983 300.803 57.6983C303.915 57.6983 306.428 59.2541 308.343 62.4852C310.377 66.195 311.933 73.0164 313.01 82.8295C313.967 92.0442 314.446 101.379 314.446 110.952C314.446 111.551 314.446 114.543 314.326 119.928C314.207 125.313 313.369 130.22 311.693 134.887C310.018 139.674 306.547 141.947 301.641 141.947Z" fill="#FFEC06"/>
<path d="M357.408 141.11C350.108 141.11 345.561 137.4 344.005 129.861C342.569 122.8 341.851 114.662 341.851 105.328C341.851 93.6 342.688 76.6065 344.483 54.2278V52.3131C344.483 50.518 343.885 49.3213 342.569 48.6032C341.252 47.8852 336.226 47.0475 327.49 46.0901C321.746 45.4918 318.993 43.4574 318.993 39.9869C318.993 37.2344 320.31 35.3196 323.062 34.2426C325.815 33.1656 328.567 32.4475 331.2 31.9688C340.295 30.5328 345.202 29.0967 345.8 27.7803C346.039 27.4213 346.159 26.7033 346.159 25.6262C346.159 22.7541 346.279 20.241 346.398 17.9672C346.518 15.6934 347.356 12.4623 348.672 8.39341C350.467 2.8885 353.818 0.0163651 358.605 0.0163651C363.033 0.0163651 366.264 1.81145 368.179 5.40161C370.093 8.99177 371.051 12.5819 371.051 15.9328L370.931 22.395C370.931 23.9508 371.29 25.2672 372.008 26.1049C372.726 27.0623 375.838 27.541 381.343 27.541H386.847C390.198 27.541 393.19 27.6606 395.943 27.9C398.695 28.1393 401.328 29.336 403.841 31.3705C406.833 33.8836 408.269 36.636 408.269 39.7475C408.269 39.9869 408.269 40.9442 408.149 42.7393C408.029 44.5344 406.234 46.4492 402.764 48.4836C400.131 50.0393 397.498 50.7574 394.626 50.7574C391.275 50.7574 388.403 50.518 385.651 50.0393C383.616 49.6803 381.821 49.441 380.146 49.441C379.428 49.441 378.351 49.5606 377.034 49.6803C374.521 49.9197 372.965 57.2196 372.606 71.5803C372.487 76.6065 372.367 83.5475 372.367 92.2836C372.367 101.498 372.247 109.397 372.008 115.859C371.769 122.321 370.811 127.587 369.375 131.775C367.341 137.998 363.272 141.11 357.408 141.11Z" fill="white"/>
<path d="M430.288 131.297H429.331C421.672 131.297 415.329 129.621 410.184 126.151C405.038 122.68 401.088 118.013 398.336 112.149C395.344 105.687 393.908 98.5065 393.908 90.7278C393.908 80.5557 395.703 71.9393 399.293 64.8787C402.884 57.818 407.551 52.4328 413.295 48.9623C419.039 45.3721 425.023 43.577 431.007 43.577C437.229 43.6967 442.495 45.4918 446.923 49.082C451.949 53.1508 454.462 59.1344 454.462 67.0328C454.462 72.059 453.026 76.4868 450.034 80.3163C447.043 84.0262 442.854 87.018 437.588 89.1721C432.323 91.3262 426.698 92.8819 420.715 93.6C417.124 94.0787 415.329 96.3524 415.329 100.302C415.329 102.575 416.407 104.969 418.441 107.482C420.715 110.354 425.143 111.67 431.605 111.67C439.144 111.67 446.564 109.516 454.103 105.208C458.052 102.934 461.403 101.738 464.156 101.738C465.951 101.738 467.387 102.336 468.464 103.533C469.421 104.729 469.9 106.046 469.9 107.602C469.9 110.474 468.823 112.867 466.549 115.141C455.898 125.672 443.811 131.057 430.288 131.297ZM423.228 75.8885C427.775 75.8885 431.365 73.3754 433.879 68.3491C435.674 64.759 436.511 62.0065 436.511 59.9721C436.511 58.177 435.674 57.3393 433.879 57.3393C433.759 57.3393 433.28 57.3393 432.203 57.3393C431.126 57.3393 429.331 58.177 426.698 59.6131C424.065 61.1688 421.792 62.9639 419.877 65.118C418.321 66.7934 417.603 68.5885 417.603 70.2639C417.603 74.0934 419.518 75.8885 423.228 75.8885Z" fill="white"/>
<path d="M302.479 28.7377C302.479 28.7377 292.187 38.9098 292.187 46.4492C292.187 51.3557 296.734 54.3475 302.479 54.3475C308.223 54.3475 312.77 51.236 312.77 46.4492C312.651 38.9098 302.479 28.7377 302.479 28.7377Z" fill="#FFEC06"/>
<g opacity="0.05">
<path opacity="0.05" d="M303.197 29.5754C305.949 33.6442 308.941 39.1492 308.941 43.8164C308.941 49.3213 304.393 52.9114 298.649 52.9114C297.572 52.9114 296.495 52.7918 295.538 52.5524C297.333 53.7492 299.726 54.3475 302.359 54.3475C307.984 54.3475 312.651 51.236 312.651 46.4491C312.651 40.2262 305.59 32.0885 303.197 29.5754Z" fill="#FFEC06"/>
</g>
</g>
<defs>
<filter id="filter0_d" x="0.854004" y="0.0163651" width="473.046" height="149.931" filterUnits="userSpaceOnUse" color-interpolation-filters="sRGB">
<feFlood flood-opacity="0" result="BackgroundImageFix"/>
<feColorMatrix in="SourceAlpha" type="matrix" values="0 0 0 0 0 0 0 0 0 0 0 0 0 0 0 0 0 0 127 0"/>
<feOffset dy="4"/>
<feGaussianBlur stdDeviation="2"/>
<feColorMatrix type="matrix" values="0 0 0 0 0 0 0 0 0 0 0 0 0 0 0 0 0 0 0.25 0"/>
<feBlend mode="normal" in2="BackgroundImageFix" result="effect1_dropShadow"/>
<feBlend mode="normal" in="SourceGraphic" in2="effect1_dropShadow" result="shape"/>
</filter>
</defs>
</svg>
