<svg id="Camada_1" data-name="Camada 1" xmlns="http://www.w3.org/2000/svg" viewBox="0 0 193.08 58.93"><defs><style>.cls-1{fill:#09d1d1;}.cls-2{opacity:0.05;}</style></defs><path class="cls-1" d="M279.67,509.13l-4.56-.07a29.63,29.63,0,0,1-8.19-1.35c-3.33-1-5-3.15-5-6.54a6.22,6.22,0,0,1,1.8-4.36q2-2,6.88-6.29,20.1-17.61,20.1-20.65c0-.69-.56-1.16-1.69-1.43a36.48,36.48,0,0,0-5.15-.71q-2.31-.21-5.52-.6a9.94,9.94,0,0,1-3.81-1.28,3.75,3.75,0,0,1-2.13-3.42,3.47,3.47,0,0,1,1.92-3.08,16.8,16.8,0,0,1,7.83-2.23c1.88-.11,3.67-.17,5.39-.17a77,77,0,0,1,12.18.77q8.25,1.41,8.26,6.5t-5.56,11a214,214,0,0,1-15.53,15.18c-3.1,2.77-4.66,4.52-4.66,5.27,0,.45.81.68,2.44.68.66,0,1.4,0,2.25-.09s1.71-.08,2.63-.08a60.82,60.82,0,0,1,6.62.43,12.38,12.38,0,0,1,7.19,3.5,4,4,0,0,1,1.41,3,2.58,2.58,0,0,1-1.5,2.31q-3.47,2-10.52,2.9A102.42,102.42,0,0,1,279.67,509.13Z" transform="translate(-261.92 -454.09)"/><path class="cls-1" d="M319.78,508.57h-.39a13.37,13.37,0,0,1-12.91-8,21,21,0,0,1-1.84-8.89,23.69,23.69,0,0,1,2.22-10.74,16.14,16.14,0,0,1,5.82-6.62,13.78,13.78,0,0,1,7.36-2.23,10.49,10.49,0,0,1,6.62,2.27q3.13,2.56,3.13,7.44a8.52,8.52,0,0,1-1.86,5.49,12.53,12.53,0,0,1-5.16,3.7,26.5,26.5,0,0,1-7,1.84c-1.48.2-2.22,1.13-2.22,2.78a4.86,4.86,0,0,0,1.28,3c.94,1.16,2.76,1.75,5.47,1.75a18.48,18.48,0,0,0,9.33-2.7,8.83,8.83,0,0,1,4.19-1.45,2.17,2.17,0,0,1,1.77.73,2.55,2.55,0,0,1,.62,1.71,4.3,4.3,0,0,1-1.37,3.12Q328.2,508.45,319.78,508.57Zm-2.95-23q2.87,0,4.45-3.12a8.58,8.58,0,0,0,1.11-3.46,1,1,0,0,0-1.11-1.12l-.69,0a6.31,6.31,0,0,0-2.31,1,10.75,10.75,0,0,0-2.82,2.26,3.27,3.27,0,0,0-.94,2.14A2,2,0,0,0,316.83,485.56Z" transform="translate(-261.92 -454.09)"/><path class="cls-1" d="M344.8,512.85l-1.22-.09c-.73-.06-1.58-.68-2.55-1.88a6.71,6.71,0,0,1-1.58-4.36l0-15.06q.09-15.94,1.84-19.07A4,4,0,0,1,345,470q4.44,0,4.92,7.44a15.48,15.48,0,0,0,.17,1.79q7.14-8,12.95-8a37,37,0,0,1,4.34.66q3.57.66,5.84,13.07a68.05,68.05,0,0,1,1.16,12.74,26.84,26.84,0,0,1-1.56,9.6c-1.05,2.72-2.89,4.08-5.54,4.08a5.75,5.75,0,0,1-4.06-1.58,5.59,5.59,0,0,1-1.76-3.5,22.67,22.67,0,0,1-.3-3.55,41.71,41.71,0,0,1,.47-5.35,39.81,39.81,0,0,0,.39-6q0-9.91-2.87-9.92c-.77,0-1.69.73-2.78,2.18q-3,4.11-4.74,16.17c-.38,2.56-.81,4.87-1.31,6.93a9.72,9.72,0,0,1-2.18,4.55A4.5,4.5,0,0,1,344.8,512.85Z" transform="translate(-261.92 -454.09)"/><path class="cls-1" d="M385.12,513a4.15,4.15,0,0,1-4.36-3.13q-1.06-3.42-1.07-13.42,0-13.1,1.84-16.3a3.73,3.73,0,0,1,3.29-2.13,3.51,3.51,0,0,1,3.13,2q1.28,2.31,1.92,8.46a112.19,112.19,0,0,1,.6,11.68c0,.25,0,1.49,0,3.72a18.31,18.31,0,0,1-1.12,6.22A4.1,4.1,0,0,1,385.12,513Z" transform="translate(-261.92 -454.09)"/><path class="cls-1" d="M408.3,512.63q-4.57,0-5.56-4.66a50.87,50.87,0,0,1-.9-10.18q0-7.31,1.12-21.21v-.81a1.6,1.6,0,0,0-.82-1.54c-.54-.28-2.63-.63-6.28-1q-3.56-.37-3.55-2.52a2.41,2.41,0,0,1,1.71-2.39,15.6,15.6,0,0,1,3.38-1c3.79-.59,5.81-1.18,6.07-1.75a2.3,2.3,0,0,0,.13-.9c0-1.16,0-2.22.1-3.16a18.62,18.62,0,0,1,1-4q1.11-3.46,4.14-3.46a4.16,4.16,0,0,1,4,2.24,9.29,9.29,0,0,1,1.2,4.39l0,2.69a2.45,2.45,0,0,0,.45,1.56c.29.39,1.58.58,3.87.58h2.3c1.4,0,2.66.06,3.79.17a6.14,6.14,0,0,1,3.27,1.45,4.46,4.46,0,0,1,1.84,3.47c0,.08,0,.49-.06,1.22s-.8,1.51-2.25,2.37a6.62,6.62,0,0,1-3.38.94,21.07,21.07,0,0,1-3.72-.3,11.78,11.78,0,0,0-2.26-.26,12.31,12.31,0,0,0-1.29.09c-1.05.11-1.67,3.15-1.84,9.11q-.07,3.12-.08,8.6,0,5.76-.17,9.77a22.68,22.68,0,0,1-1.12,6.6Q412,512.64,408.3,512.63Z" transform="translate(-261.92 -454.09)"/><path class="cls-1" d="M438.58,508.57h-.39a13.37,13.37,0,0,1-12.91-8,21,21,0,0,1-1.84-8.89,23.69,23.69,0,0,1,2.22-10.74,16.07,16.07,0,0,1,5.82-6.62,13.76,13.76,0,0,1,7.36-2.23,10.49,10.49,0,0,1,6.62,2.27c2.08,1.71,3.13,4.19,3.13,7.44a8.48,8.48,0,0,1-1.87,5.49,12.43,12.43,0,0,1-5.15,3.7,26.5,26.5,0,0,1-7,1.84,2.44,2.44,0,0,0-2.23,2.78,4.88,4.88,0,0,0,1.29,3c.94,1.16,2.76,1.75,5.47,1.75a18.42,18.42,0,0,0,9.32-2.7,8.86,8.86,0,0,1,4.2-1.45,2.19,2.19,0,0,1,1.77.73,2.55,2.55,0,0,1,.62,1.71,4.3,4.3,0,0,1-1.37,3.12Q447,508.45,438.58,508.57Zm-2.95-23q2.87,0,4.45-3.12a8.58,8.58,0,0,0,1.11-3.46,1,1,0,0,0-1.11-1.12l-.69,0a6.31,6.31,0,0,0-2.31,1,10.75,10.75,0,0,0-2.82,2.26,3.27,3.27,0,0,0-.94,2.14A2,2,0,0,0,435.63,485.56Z" transform="translate(-261.92 -454.09)"/><path class="cls-1" d="M385.47,466s-4.25,4.21-4.25,7.34c0,2,1.9,3.29,4.25,3.29s4.25-1.27,4.25-3.29C389.72,470.2,385.47,466,385.47,466Z" transform="translate(-261.92 -454.09)"/><g class="cls-2"><path class="cls-1" d="M385.8,466.33c1.14,1.7,2.38,4,2.38,5.92,0,2.31-1.9,3.77-4.25,3.77a5.28,5.28,0,0,1-1.28-.16,5.18,5.18,0,0,0,2.82.76c2.35,0,4.25-1.27,4.25-3.29C389.72,470.73,386.79,467.39,385.8,466.33Z" transform="translate(-261.92 -454.09)"/></g></svg>