<svg id="Camada_1" data-name="Camada 1" xmlns="http://www.w3.org/2000/svg" viewBox="0 0 388.46 118.56">
  <defs>
    <style>.cls-1{fill:#fff;}.cls-2{fill:#fff;}.cls-3{opacity:0.05;}</style>
  </defs>
  <path class="cls-1" d="M321.62,531.19c-.8,0-3.85-.05-9.16-.13A60.22,60.22,0,0,1,296,528.35q-10.08-2.93-10.07-13.17a12.5,12.5,0,0,1,3.61-8.77q4-4.05,13.85-12.65,40.44-35.44,40.44-41.55,0-2.07-3.4-2.89a78.46,78.46,0,0,0-10.36-1.42q-4.65-.42-11.1-1.2a20,20,0,0,1-7.66-2.58,7.53,7.53,0,0,1-4.3-6.88c0-2.59,1.29-4.65,3.87-6.2q6.28-3.87,15.74-4.47c3.79-.23,7.4-.35,10.85-.35A154.62,154.62,0,0,1,362,427.77q16.61,2.84,16.6,13.08,0,10.06-11.18,22.11a435.22,435.22,0,0,1-31.24,30.54q-9.37,8.36-9.37,10.59,0,1.37,4.9,1.37c1.32,0,2.82,0,4.52-.17s3.45-.17,5.29-.17a125.9,125.9,0,0,1,13.33.86,24.93,24.93,0,0,1,14.46,7,8.11,8.11,0,0,1,2.84,6,5.2,5.2,0,0,1-3,4.64q-7,4-21.17,5.85A209.26,209.26,0,0,1,321.62,531.19Z" transform="translate(-285.92 -420.46)" />
  <path class="cls-1" d="M402.33,530.07h-.78q-9.54,0-16-4.35A28,28,0,0,1,375.57,514a42.47,42.47,0,0,1-3.7-17.9q0-12.72,4.47-21.59a32.38,32.38,0,0,1,11.71-13.34,27.78,27.78,0,0,1,14.79-4.47,21.11,21.11,0,0,1,13.34,4.56q6.29,5.16,6.28,15a17.22,17.22,0,0,1-3.74,11.06,25.5,25.5,0,0,1-10.37,7.44,54.57,54.57,0,0,1-14.11,3.7q-4.47.6-4.47,5.59a9.78,9.78,0,0,0,2.58,6q2.83,3.53,11,3.53a37.27,37.27,0,0,0,18.76-5.42q5-2.92,8.43-2.93a4.42,4.42,0,0,1,3.57,1.47,5.13,5.13,0,0,1,1.25,3.44,8.65,8.65,0,0,1-2.76,6.28Q419.28,529.82,402.33,530.07Zm-5.94-46.29q5.76,0,8.95-6.28,2.24-4.47,2.24-7a2,2,0,0,0-2.24-2.24l-1.38,0q-1.29,0-4.64,1.93a21.66,21.66,0,0,0-5.68,4.56,6.54,6.54,0,0,0-1.9,4.31Q391.74,483.78,396.39,483.78Z" transform="translate(-285.92 -420.46)" />
  <path class="cls-1" d="M452.66,538.67c-.17,0-1,0-2.45-.17s-3.17-1.38-5.12-3.78a13.44,13.44,0,0,1-3.19-8.78l.09-30.29q.17-32.08,3.7-38.37,2.58-4.81,7.31-4.82,9,0,9.9,15c.05,1.21.17,2.41.34,3.62q14.37-16,26.07-16a75.16,75.16,0,0,1,8.73,1.34q7.18,1.33,11.75,26.28a137,137,0,0,1,2.32,25.64A54.12,54.12,0,0,1,509,527.62q-3.14,8.22-11.14,8.21a11.65,11.65,0,0,1-8.18-3.18,11.26,11.26,0,0,1-3.52-7,44.74,44.74,0,0,1-.61-7.15,82.88,82.88,0,0,1,1-10.75,80.52,80.52,0,0,0,.78-12.05q0-19.95-5.77-20c-1.55,0-3.41,1.47-5.59,4.39q-6.11,8.26-9.55,32.52-1.12,7.74-2.63,13.94t-4.38,9.16A9.05,9.05,0,0,1,452.66,538.67Z" transform="translate(-285.92 -420.46)" />
  <path class="cls-2" d="M533.79,539q-6.79,0-8.77-6.28-2.16-6.88-2.16-27,0-26.33,3.7-32.78,2.51-4.31,6.63-4.3,4,0,6.28,4,2.58,4.65,3.87,17a226.59,226.59,0,0,1,1.21,23.49c0,.51,0,3-.09,7.48a37.09,37.09,0,0,1-2.24,12.52Q540.07,539,533.79,539Z" transform="translate(-285.92 -420.46)" />
  <path class="cls-1" d="M580.42,538.24q-9.21,0-11.18-9.37a102.2,102.2,0,0,1-1.81-20.48q0-14.72,2.24-42.68v-1.63A3.2,3.2,0,0,0,568,461q-1.63-.86-12.64-2.06-7.14-.78-7.14-5.08a4.88,4.88,0,0,1,3.44-4.82,31.15,31.15,0,0,1,6.79-1.89q11.44-1.81,12.22-3.53a4.41,4.41,0,0,0,.26-1.8q0-3.54.22-6.37a35.71,35.71,0,0,1,1.93-8q2.24-7,8.35-7,5.58,0,8,4.51a18.8,18.8,0,0,1,2.41,8.82l-.09,5.42a5,5,0,0,0,.9,3.14c.61.78,3.2,1.17,7.79,1.17h4.65a76.17,76.17,0,0,1,7.61.34,12.32,12.32,0,0,1,6.58,2.93q3.71,3.09,3.7,7c0,.18,0,1-.13,2.46s-1.59,3.05-4.51,4.77a13.44,13.44,0,0,1-6.8,1.89,42.81,42.81,0,0,1-7.49-.6,23.85,23.85,0,0,0-4.56-.51,24.46,24.46,0,0,0-2.58.17q-3.18.35-3.7,18.32-.16,6.28-.17,17.3,0,11.61-.34,19.66a45.56,45.56,0,0,1-2.24,13.29Q587.82,538.24,580.42,538.24Z" transform="translate(-285.92 -420.46)" />
  <path class="cls-1" d="M641.34,530.07h-.78q-9.54,0-16-4.35A28,28,0,0,1,614.58,514a42.47,42.47,0,0,1-3.7-17.9q0-12.72,4.47-21.59a32.38,32.38,0,0,1,11.71-13.34,27.78,27.78,0,0,1,14.79-4.47,21.11,21.11,0,0,1,13.34,4.56q6.27,5.16,6.28,15a17.22,17.22,0,0,1-3.74,11.06,25.5,25.5,0,0,1-10.37,7.44,54.57,54.57,0,0,1-14.11,3.7q-4.47.6-4.47,5.59a9.78,9.78,0,0,0,2.58,6q2.83,3.53,11,3.53a37.27,37.27,0,0,0,18.76-5.42q5-2.92,8.43-2.93a4.42,4.42,0,0,1,3.57,1.47,5.13,5.13,0,0,1,1.25,3.44,8.65,8.65,0,0,1-2.76,6.28Q658.29,529.82,641.34,530.07Zm-5.94-46.29q5.76,0,9-6.28,2.24-4.47,2.24-7a2,2,0,0,0-2.24-2.24l-1.38,0q-1.29,0-4.64,1.93a21.66,21.66,0,0,0-5.68,4.56,6.58,6.58,0,0,0-1.89,4.31C630.76,482.23,632.3,483.78,635.4,483.78Z" transform="translate(-285.92 -420.46)" />
  <path class="cls-2" d="M534.49,444.41s-8.55,8.47-8.55,14.75c0,4.07,3.83,6.64,8.55,6.64s8.56-2.57,8.56-6.64C543.05,452.88,534.49,444.41,534.49,444.41Z" transform="translate(-285.92 -420.46)" />
  <g class="cls-3">
    <path class="cls-2" d="M535.14,445.09c2.3,3.41,4.8,8,4.8,11.9,0,4.65-3.83,7.59-8.55,7.59a10.71,10.71,0,0,1-2.57-.31,10.47,10.47,0,0,0,5.67,1.53c4.73,0,8.56-2.57,8.56-6.64C543.05,453.94,537.14,447.21,535.14,445.09Z" transform="translate(-285.92 -420.46)" />
  </g>
</svg>
