<svg width="614" height="229" viewBox="0 0 614 229" fill="none" xmlns="http://www.w3.org/2000/svg">
  <g filter="url(#filter0_d)">
    <path d="M35.7131 152.907C35.7131 152.907 19.1984 69.4951 105.841 16.241L236.882 2C236.882 2 101.772 91.8738 129.536 164.754L35.7131 152.907Z" fill="#06C1B7" />
    <path d="M160.651 2.11967C66.8278 50.5869 58.8098 121.552 63.5967 154.343" stroke="white" stroke-width="3" stroke-miterlimit="10" />
    <path d="M183.388 25.3361C120.441 57.1688 93.395 124.185 105.123 158.172" stroke="white" stroke-width="3" stroke-miterlimit="10" />
    <path d="M82.5049 186.415H79.5131L79.2737 171.575L130.015 172.054V158.771L26.4983 157.334V170.618L70.5377 171.575L70.777 186.534H67.7852L68.2639 213.7C68.3835 217.769 71.7344 221 75.8032 221C79.8721 220.88 83.1032 217.53 83.1032 213.461L82.5049 186.415Z" fill="#5197BB" />
    <path d="M131.57 151.949H29.1311V165.233H131.57V151.949Z" fill="#FFEC06" />
    <path d="M89.4059 163.5L80.6707 163.644L81.0162 184.584L89.7514 184.44L89.4059 163.5Z" fill="#FFEC06" />
    <path d="M89.9245 214.657L81.7868 214.777C79.9917 214.777 78.436 213.341 78.436 211.546L77.9573 180.311L92.677 180.072L93.1557 211.307C93.2753 213.102 91.7196 214.657 89.9245 214.657Z" fill="#FFEC06" />
    <path d="M150.239 123.108C149.162 127.416 150.12 132.084 152.872 135.554C148.564 134.477 143.897 135.434 140.426 138.187C141.503 133.879 140.546 129.211 137.793 125.741C142.221 126.818 146.769 125.861 150.239 123.108Z" fill="#06C1B7" />
    <path d="M16.4459 126.459C15.3688 130.767 16.3262 135.434 19.0787 138.905C14.7705 137.828 10.1033 138.785 6.63278 141.538C7.70983 137.229 6.75246 132.562 4 129.092C8.3082 130.169 12.8557 129.211 16.4459 126.459Z" fill="#06C1B7" />
    <path d="M187.697 201.613C186.739 201.613 183.029 201.613 176.687 201.493C170.344 201.374 163.762 200.297 156.941 198.262C148.923 195.869 144.854 190.723 144.854 182.466C144.854 178.516 146.29 175.046 149.162 171.934C152.274 168.703 157.898 163.677 165.797 156.856C198.108 128.613 214.144 111.979 214.144 107.072C214.144 105.397 212.828 104.32 210.075 103.602C207.323 103.003 203.254 102.405 197.629 101.926C193.92 101.567 189.492 101.088 184.346 100.49C180.995 100.131 178.003 99.0541 175.131 97.3787C171.661 95.4639 169.985 92.7115 169.985 89.1213C169.985 86.0098 171.541 83.6164 174.652 81.7016C179.679 78.5901 185.902 76.7951 193.441 76.3164C197.988 76.077 202.297 75.9574 206.366 75.9574C218.572 75.9574 228.385 76.5557 235.685 77.7524C248.969 80.0262 255.551 85.2918 255.551 93.4295C255.551 101.448 251.123 110.303 242.147 119.877C230.3 132.682 217.854 144.889 204.81 156.377C197.27 163.079 193.561 167.267 193.561 169.062C193.561 170.139 195.475 170.738 199.425 170.738C200.98 170.738 202.775 170.618 204.81 170.498C206.844 170.379 208.998 170.259 211.152 170.259C215.58 170.259 220.846 170.618 227.069 171.336C233.292 172.054 239.036 174.807 244.421 179.833C246.695 181.987 247.772 184.38 247.772 187.013C247.772 189.407 246.575 191.202 244.182 192.518C238.677 195.629 230.18 198.023 218.811 199.579C208.879 201.015 198.347 201.613 187.697 201.613Z" fill="#06C1B7" />
    <path d="M284.272 200.297H283.315C275.656 200.297 269.313 198.621 264.167 195.151C259.021 191.68 255.072 187.013 252.32 181.149C249.328 174.687 247.892 167.507 247.892 159.728C247.892 149.556 249.687 140.939 253.277 133.879C256.867 126.818 261.534 121.433 267.279 117.962C273.023 114.372 279.006 112.577 284.99 112.577C291.213 112.697 296.479 114.492 300.906 118.082C305.933 122.151 308.446 128.134 308.446 136.033C308.446 141.059 307.01 145.487 304.018 149.316C301.026 153.026 296.838 156.018 291.572 158.172C286.306 160.326 280.682 161.882 274.698 162.6C271.108 163.079 269.313 165.352 269.313 169.302C269.313 171.575 270.39 173.969 272.425 176.482C274.698 179.354 279.126 180.67 285.588 180.67C293.128 180.67 300.547 178.516 308.087 174.208C312.036 171.934 315.387 170.738 318.139 170.738C319.934 170.738 321.37 171.336 322.447 172.533C323.405 173.729 323.884 175.046 323.884 176.602C323.884 179.474 322.806 181.867 320.533 184.141C309.882 194.672 297.795 200.057 284.272 200.297ZM277.211 144.889C281.759 144.889 285.349 142.375 287.862 137.349C289.657 133.759 290.495 131.007 290.495 128.972C290.495 127.177 289.657 126.339 287.862 126.339C287.743 126.339 287.264 126.339 286.187 126.339C285.11 126.339 283.315 127.177 280.682 128.613C278.049 130.169 275.775 131.964 273.861 134.118C272.305 135.793 271.587 137.588 271.587 139.264C271.587 143.093 273.502 144.889 277.211 144.889Z" fill="#06C1B7" />
    <path d="M344.467 210.588C344.228 210.588 343.27 210.469 341.475 210.349C339.68 210.229 337.646 208.674 335.372 205.802C332.859 202.69 331.542 199.22 331.542 195.27L331.782 159.129C331.902 133.52 333.338 118.202 336.21 113.175C338.244 109.346 341.236 107.431 344.946 107.431C352.126 107.431 356.075 113.415 356.793 125.382C356.913 126.818 357.033 128.254 357.152 129.69C368.641 116.885 379.052 110.543 388.387 110.543C389.583 110.543 393.054 111.021 398.798 112.098C404.542 113.175 409.21 123.707 412.8 143.572C414.595 153.266 415.552 163.557 415.552 174.208C415.552 183.064 414.356 190.723 411.843 197.305C409.329 203.887 404.901 207.118 398.559 207.118C394.729 207.118 391.498 205.802 388.746 203.288C386.352 201.134 385.036 198.382 384.557 194.792C384.079 191.8 383.839 188.928 383.839 186.295C383.839 183.184 384.198 178.875 384.916 173.37C385.515 169.302 385.874 164.515 385.874 159.01C385.874 143.093 383.6 135.075 378.933 135.075C377.138 135.075 374.864 136.87 372.231 140.341C367.324 146.923 363.495 159.847 360.743 179.234C359.905 185.457 358.828 190.962 357.631 195.869C356.434 200.775 354.639 204.485 352.365 206.879C350.211 209.392 347.459 210.588 344.467 210.588Z" fill="#06C1B7" />
    <path d="M441.641 210.947C436.256 210.947 432.665 208.434 431.11 203.408C429.434 197.903 428.477 187.133 428.477 171.097C428.477 150.034 429.913 136.99 432.905 131.844C434.939 128.374 437.572 126.698 440.803 126.698C443.915 126.698 446.428 128.254 448.343 131.485C450.377 135.195 451.933 142.016 453.01 151.829C453.967 161.044 454.446 170.379 454.446 179.952C454.446 180.551 454.446 183.543 454.326 188.928C454.206 194.313 453.369 199.22 451.693 203.887C450.018 208.674 446.547 210.947 441.641 210.947Z" fill="#FFEC06" />
    <path d="M497.408 210.11C490.108 210.11 485.561 206.4 484.005 198.861C482.569 191.8 481.851 183.662 481.851 174.328C481.851 162.6 482.688 145.607 484.484 123.228V121.313C484.484 119.518 483.885 118.321 482.569 117.603C481.252 116.885 476.226 116.048 467.49 115.09C461.746 114.492 458.993 112.457 458.993 108.987C458.993 106.234 460.31 104.32 463.062 103.243C465.815 102.166 468.567 101.448 471.2 100.969C480.295 99.5328 485.202 98.0967 485.8 96.7803C486.039 96.4213 486.159 95.7033 486.159 94.6262C486.159 91.7541 486.279 89.241 486.398 86.9672C486.518 84.6934 487.356 81.4623 488.672 77.3934C490.467 71.8885 493.818 69.0164 498.605 69.0164C503.033 69.0164 506.264 70.8114 508.179 74.4016C510.093 77.9918 511.051 81.5819 511.051 84.9328L510.931 91.395C510.931 92.9508 511.29 94.2672 512.008 95.1049C512.726 96.0623 515.838 96.541 521.343 96.541H526.848C530.198 96.541 533.19 96.6606 535.943 96.9C538.695 97.1393 541.328 98.336 543.841 100.37C546.833 102.884 548.269 105.636 548.269 108.748C548.269 108.987 548.269 109.944 548.149 111.739C548.029 113.534 546.234 115.449 542.764 117.484C540.131 119.039 537.498 119.757 534.626 119.757C531.275 119.757 528.403 119.518 525.651 119.039C523.616 118.68 521.821 118.441 520.146 118.441C519.428 118.441 518.351 118.561 517.034 118.68C514.521 118.92 512.966 126.22 512.607 140.58C512.487 145.607 512.367 152.547 512.367 161.284C512.367 170.498 512.247 178.397 512.008 184.859C511.769 191.321 510.811 196.587 509.375 200.775C507.341 206.998 503.272 210.11 497.408 210.11Z" fill="#06C1B7" />
    <path d="M570.288 200.297H569.331C561.672 200.297 555.329 198.621 550.184 195.151C545.038 191.68 541.088 187.013 538.336 181.149C535.344 174.687 533.908 167.507 533.908 159.728C533.908 149.556 535.703 140.939 539.293 133.879C542.884 126.818 547.551 121.433 553.295 117.962C559.039 114.372 565.023 112.577 571.007 112.577C577.23 112.697 582.495 114.492 586.923 118.082C591.949 122.151 594.462 128.134 594.462 136.033C594.462 141.059 593.026 145.487 590.034 149.316C587.043 153.026 582.854 156.018 577.589 158.172C572.323 160.326 566.698 161.882 560.715 162.6C557.125 163.079 555.329 165.352 555.329 169.302C555.329 171.575 556.407 173.969 558.441 176.482C560.715 179.354 565.143 180.67 571.605 180.67C579.144 180.67 586.564 178.516 594.103 174.208C598.052 171.934 601.403 170.738 604.156 170.738C605.951 170.738 607.387 171.336 608.464 172.533C609.421 173.729 609.9 175.046 609.9 176.602C609.9 179.474 608.823 181.867 606.549 184.141C595.898 194.672 583.811 200.057 570.288 200.297ZM563.228 144.889C567.775 144.889 571.366 142.375 573.879 137.349C575.674 133.759 576.511 131.007 576.511 128.972C576.511 127.177 575.674 126.339 573.879 126.339C573.759 126.339 573.28 126.339 572.203 126.339C571.126 126.339 569.331 127.177 566.698 128.613C564.066 130.169 561.792 131.964 559.877 134.118C558.321 135.793 557.603 137.588 557.603 139.264C557.603 143.093 559.518 144.889 563.228 144.889Z" fill="#06C1B7" />
    <path d="M442.479 97.7377C442.479 97.7377 432.187 107.91 432.187 115.449C432.187 120.356 436.734 123.348 442.479 123.348C448.223 123.348 452.77 120.236 452.77 115.449C452.651 107.91 442.479 97.7377 442.479 97.7377Z" fill="#FFEC06" />
    <g opacity="0.05">
      <path opacity="0.05" d="M443.197 98.5754C445.949 102.644 448.941 108.149 448.941 112.816C448.941 118.321 444.393 121.911 438.649 121.911C437.572 121.911 436.495 121.792 435.538 121.552C437.333 122.749 439.726 123.348 442.359 123.348C447.984 123.348 452.651 120.236 452.651 115.449C452.651 109.226 445.59 101.088 443.197 98.5754Z" fill="#FFEC06" />
    </g>
  </g>
  <defs>
    <filter id="filter0_d" x="0" y="0.786987" width="613.9" height="228.213" filterUnits="userSpaceOnUse" color-interpolation-filters="sRGB">
      <feFlood flood-opacity="0" result="BackgroundImageFix" />
      <feColorMatrix in="SourceAlpha" type="matrix" values="0 0 0 0 0 0 0 0 0 0 0 0 0 0 0 0 0 0 127 0" />
      <feOffset dy="4" />
      <feGaussianBlur stdDeviation="2" />
      <feColorMatrix type="matrix" values="0 0 0 0 0 0 0 0 0 0 0 0 0 0 0 0 0 0 0.25 0" />
      <feBlend mode="normal" in2="BackgroundImageFix" result="effect1_dropShadow" />
      <feBlend mode="normal" in="SourceGraphic" in2="effect1_dropShadow" result="shape" />
    </filter>
  </defs>
</svg>
